<?xml version="1.0" encoding="UTF-8"?>
<!DOCTYPE svg PUBLIC "-//W3C//DTD SVG 1.0//EN" "http://www.w3.org/TR/2001/REC-SVG-20010904/DTD/svg10.dtd">
<!-- Creator: CorelDRAW 2021.5 -->
<svg xmlns="http://www.w3.org/2000/svg" xml:space="preserve" width="278px" height="297px" version="1.0" style="shape-rendering:geometricPrecision; text-rendering:geometricPrecision; image-rendering:optimizeQuality; fill-rule:evenodd; clip-rule:evenodd"
viewBox="0 0 493.44 527.66"
 xmlns:xlink="http://www.w3.org/1999/xlink"
 xmlns:xodm="http://www.corel.com/coreldraw/odm/2003">
 <defs>
  <style type="text/css">
   <![CDATA[
    .str0 {stroke:black;stroke-width:4.2;stroke-miterlimit:22.9256}
    .fil2 {fill:lime}
    .fil0 {fill:black;fill-rule:nonzero}
    .fil1 {fill:#666666;fill-rule:nonzero}
   ]]>
  </style>
 </defs>
 <g id="Layer_x0020_1">
  <metadata id="CorelCorpID_0Corel-Layer"/>
  <g id="_2384403155264">
   <path class="fil0" d="M63.12 527.66l0 -127.32 25.25 0 30.12 90.13c2.78,8.39 4.8,14.67 6.07,18.85 1.45,-4.63 3.73,-11.44 6.82,-20.42l30.64 -88.56 22.55 0 0 127.32 -16.18 0 0 -106.51 -37.16 106.51 -15.17 0 -36.75 -108.47 0 108.47 -16.19 0z"/>
   <path id="_1" class="fil0" d="M197.64 527.66l48.84 -127.32 18.53 0 51.83 127.32 -19.17 0 -14.73 -38.59 -53.61 0 -13.82 38.59 -17.87 0zm36.63 -52.28l43.39 0 -13.28 -35.29c-4,-10.73 -7.02,-19.59 -9.12,-26.59 -1.75,8.3 -4.09,16.45 -7.03,24.51l-13.96 37.37z"/>
   <polygon id="_2" class="fil0" points="330.03,527.66 330.03,400.34 347.34,400.34 414.14,500.28 414.14,400.34 430.32,400.34 430.32,527.66 413.01,527.66 346.21,427.73 346.21,527.66 "/>
   <g>
    <path class="fil1" d="M493.44 368.97l-201.89 -15.19c-8.65,4.57 -15.93,7.66 -21.61,9.02 -7.29,2.22 -14.2,3.33 -20.62,3.33 -6.55,0 -13.83,-1.11 -21.74,-3.33 -6.79,-1.36 -14.94,-4.45 -24.57,-9.02l-203.01 15.19 0 -319.82 42.72 -2.47 16.55 -32.23c15.19,-4.08 32.36,-7.66 51.37,-10.87 18.16,-2.35 33.22,-3.58 45.32,-3.58 24.08,0 43.22,3.09 57.42,9.39 13.83,6.54 24.82,17.28 32.97,32.23 7.04,-14.45 17.91,-25.07 32.6,-31.86 14.45,-6.55 34.45,-9.76 60.01,-9.76 11.36,0 25.69,1.23 43.1,3.58 18.77,3.21 35.69,6.79 50.63,10.87l15.56 29.64 45.19 2.59 0 322.29zm-11.23 -12.22l0 -299.95 -28.53 -1.85 11.24 18.77 0 264.13 -184.24 -11.6c-9.39,7.78 -20.75,11.6 -33.96,11.6 -13.7,0 -24.94,-3.82 -33.59,-11.6l-184.98 11.6 0 -264.13 8.4 -16.18 -25.31 0.99 0 298.22 195.35 -14.57c6.3,3.95 13.58,7.03 22.1,9.38 7.17,2.22 14.08,3.33 20.63,3.33 5.92,0 12.22,-1.11 18.76,-3.33 7.04,-2.1 13.59,-5.19 19.89,-9.38l194.24 14.57zm-442.82 -280.81l0 240.18 22.48 -44.08 0 -237.34 -22.48 41.24zm391.45 -40.13l0 236.23 22.84 43.09 0 -236.59 -22.84 -42.73zm-382.68 290.44l168.18 -12.97c4.57,6.3 12.72,10.62 24.58,12.97 -2.1,-19.02 -9.63,-32.73 -22.35,-41.25 -12.6,-8.39 -32.73,-12.59 -60.51,-12.59 -13.71,0 -27.41,0.86 -41.24,2.47 -15.93,2.22 -31.49,4.81 -46.68,8.02l-21.98 43.35zm398.61 0l-22.11 -42.61c-13.21,-2.96 -29.76,-5.8 -49.51,-8.76 -14.2,-1.61 -28.04,-2.47 -41.62,-2.47 -53.96,0 -81.01,17.9 -81.01,53.84 11.12,-1.61 19.64,-6.05 25.69,-13.34l168.56 13.34zm-373.3 -55.7c19.02,-3.33 34.82,-5.8 47.3,-7.16 13.83,-1.48 25.56,-2.22 35.19,-2.22 39.52,0 67.79,9.51 84.96,28.65l0 -214.25c0,-21.48 -6.67,-37.54 -19.88,-48.16 -13.46,-10.74 -33.59,-16.17 -60.39,-16.17 -12.84,0 -26.92,0.86 -42.35,2.84 -18.28,2.96 -33.34,5.8 -44.83,8.64l0 247.83zm346.13 -248.2c-18.52,-3.83 -34.08,-6.54 -46.68,-8.27 -15.43,-1.98 -28.4,-2.84 -39.02,-2.84 -28.15,0 -49.64,5.8 -64.33,17.66 -11.86,9.13 -17.78,24.82 -17.78,47.04l0 214.5c10.61,-11 21.97,-18.77 33.95,-23.1 11.12,-4.07 27.66,-6.17 49.64,-6.17 13.71,0 27.66,0.74 41.99,2.22 13.95,1.86 28.03,4.45 42.23,7.53l0 -248.57z"/>
    <path class="fil2 str0" d="M73.63 270.17c-0.15,-81.94 -0.29,-163.89 -0.44,-245.84 42.98,-8.16 85.96,-16.32 114.76,-11.18 28.8,5.13 43.43,23.56 58.05,41.99 13.46,-18.13 26.92,-36.27 55.84,-41.69 28.92,-5.43 73.31,1.85 117.69,9.14 -0.12,82.7 -0.24,165.39 -0.37,248.09 -41.2,-5.83 -82.41,-11.66 -111.24,-7.88 -28.84,3.78 -45.31,17.18 -61.78,30.58 -18.49,-13.53 -36.99,-27.05 -65.74,-30.92 -28.75,-3.87 -67.76,1.92 -106.77,7.71z"/>
   </g>
  </g>
 </g>
</svg>
