<?xml version="1.0" encoding="UTF-8"?>
<!DOCTYPE svg PUBLIC "-//W3C//DTD SVG 1.0//EN" "http://www.w3.org/TR/2001/REC-SVG-20010904/DTD/svg10.dtd">
<!-- Creator: CorelDRAW 2021.5 -->
<svg xmlns="http://www.w3.org/2000/svg" xml:space="preserve" width="264px" height="233px" version="1.0" style="shape-rendering:geometricPrecision; text-rendering:geometricPrecision; image-rendering:optimizeQuality; fill-rule:evenodd; clip-rule:evenodd"
viewBox="0 0 43.16 38.17"
 xmlns:xlink="http://www.w3.org/1999/xlink"
 xmlns:xodm="http://www.corel.com/coreldraw/odm/2003">
 <defs>
  <style type="text/css">
   <![CDATA[
    .fil0 {fill:black;fill-rule:nonzero}
   ]]>
  </style>
 </defs>
 <g id="Layer_x0020_1">
  <metadata id="CorelCorpID_0Corel-Layer"/>
  <path class="fil0" d="M24.38 2.83l1.3 4.06 4.26 0 -3.46 2.47 1.33 4.06 -3.43 -2.49 -3.44 2.49 1.31 -4.06 -3.43 -2.47 4.23 0 1.33 -4.06zm-24.38 35.34l0 -4.69 2.59 0c0.21,-2.67 1.96,-5.36 5.27,-8.09 3.31,-2.72 7.33,-4.2 12.06,-4.45l0 -5.42c-1.89,-0.27 -3.48,-1.12 -4.76,-2.58 -1.3,-1.46 -1.94,-3.17 -1.94,-5.15 0,-2.13 0.77,-3.97 2.28,-5.49 1.52,-1.54 3.36,-2.3 5.51,-2.3 1.8,0 3.41,0.56 4.84,1.69 -0.85,-0.42 -1.72,-0.63 -2.63,-0.63 -1.74,0 -3.21,0.66 -4.42,1.99 -1.21,1.32 -1.81,2.9 -1.81,4.74 0,1.86 0.6,3.46 1.81,4.76 1.21,1.31 2.68,1.97 4.42,1.97 0.91,0 1.78,-0.22 2.63,-0.64 -0.87,0.7 -1.73,1.15 -2.6,1.37l0 5.69c4.71,0.25 8.71,1.73 12.02,4.45 3.31,2.73 5.07,5.42 5.3,8.09l2.59 0 0 4.69 -43.16 0z"/>
 </g>
</svg>
