<?xml version="1.0" encoding="UTF-8"?>
<!DOCTYPE svg PUBLIC "-//W3C//DTD SVG 1.0//EN" "http://www.w3.org/TR/2001/REC-SVG-20010904/DTD/svg10.dtd">
<!-- Creator: CorelDRAW 2021.5 -->
<svg xmlns="http://www.w3.org/2000/svg" xml:space="preserve" width="278px" height="297px" version="1.0" style="shape-rendering:geometricPrecision; text-rendering:geometricPrecision; image-rendering:optimizeQuality; fill-rule:evenodd; clip-rule:evenodd"
viewBox="0 0 139.67 149.64"
 xmlns:xlink="http://www.w3.org/1999/xlink"
 xmlns:xodm="http://www.corel.com/coreldraw/odm/2003">
 <defs>
  <style type="text/css">
   <![CDATA[
    .str0 {stroke:black;stroke-width:1.19;stroke-miterlimit:22.9256}
    .fil2 {fill:lime}
    .fil0 {fill:black;fill-rule:nonzero}
    .fil1 {fill:blue;fill-rule:nonzero}
   ]]>
  </style>
 </defs>
 <g id="Layer_x0020_1">
  <metadata id="CorelCorpID_0Corel-Layer"/>
  <g id="_2384412011040">
   <g>
    <path class="fil0" d="M24.72 149.08l0 -36.04 7.45 0 8.88 25.51c0.83,2.38 1.42,4.16 1.8,5.34 0.42,-1.31 1.1,-3.24 2.01,-5.78l9.04 -25.07 6.65 0 0 36.04 -4.77 0 0 -30.15 -10.97 30.15 -4.47 0 -10.84 -30.7 0 30.7 -4.78 0zm53.35 0l0 -31.81 -12.38 0 0 -4.23 29.75 0 0 4.23 -12.38 0 0 31.81 -4.99 0zm14.27 -7.8l4.57 -0.7c0.25,1.75 0.97,3.09 2.14,4.03 1.17,0.93 2.81,1.4 4.91,1.4 2.13,0 3.7,-0.41 4.73,-1.24 1.03,-0.82 1.54,-1.79 1.54,-2.91 0,-1 -0.46,-1.79 -1.38,-2.36 -0.65,-0.39 -2.22,-0.89 -4.72,-1.5 -3.38,-0.81 -5.71,-1.52 -7.02,-2.11 -1.31,-0.61 -2.29,-1.43 -2.97,-2.49 -0.67,-1.04 -1.01,-2.21 -1.01,-3.49 0,-1.16 0.28,-2.24 0.83,-3.23 0.56,-0.99 1.31,-1.81 2.26,-2.46 0.72,-0.5 1.7,-0.93 2.93,-1.29 1.24,-0.35 2.57,-0.52 3.98,-0.52 2.13,0 4.01,0.29 5.61,0.89 1.62,0.58 2.81,1.39 3.58,2.39 0.76,1.02 1.29,2.37 1.58,4.07l-4.51 0.6c-0.2,-1.36 -0.79,-2.43 -1.77,-3.19 -0.98,-0.76 -2.36,-1.14 -4.16,-1.14 -2.1,0 -3.62,0.34 -4.52,1.01 -0.9,0.67 -1.35,1.46 -1.35,2.35 0,0.58 0.18,1.1 0.56,1.56 0.37,0.47 0.96,0.86 1.76,1.17 0.47,0.17 1.81,0.55 4.07,1.13 3.25,0.83 5.53,1.52 6.82,2.05 1.29,0.53 2.31,1.31 3.04,2.32 0.75,1.01 1.11,2.27 1.11,3.78 0,1.47 -0.44,2.85 -1.34,4.15 -0.9,1.3 -2.2,2.31 -3.89,3.02 -1.69,0.71 -3.61,1.07 -5.74,1.07 -3.53,0 -6.23,-0.71 -8.09,-2.11 -1.85,-1.41 -3.03,-3.49 -3.55,-6.25z"/>
   </g>
   <g>
    <path class="fil1" d="M139.67 104.44l-57.14 -4.3c-2.45,1.3 -4.51,2.17 -6.12,2.55 -2.06,0.63 -4.02,0.95 -5.84,0.95 -1.85,0 -3.91,-0.32 -6.15,-0.95 -1.92,-0.38 -4.23,-1.25 -6.96,-2.55l-57.46 4.3 0 -90.53 12.09 -0.7 4.69 -9.12c4.3,-1.15 9.16,-2.17 14.54,-3.08 5.14,-0.66 9.4,-1.01 12.83,-1.01 6.81,0 12.23,0.87 16.25,2.66 3.91,1.85 7.03,4.89 9.33,9.12 1.99,-4.09 5.07,-7.1 9.23,-9.02 4.09,-1.85 9.75,-2.76 16.99,-2.76 3.21,0 7.27,0.35 12.2,1.01 5.31,0.91 10.1,1.93 14.33,3.08l4.4 8.39 12.79 0.73 0 91.23zm-3.18 -3.46l0 -84.9 -8.07 -0.53 3.18 5.32 0 74.76 -52.15 -3.28c-2.66,2.2 -5.87,3.28 -9.61,3.28 -3.88,0 -7.06,-1.08 -9.51,-3.28l-52.36 3.28 0 -74.76 2.38 -4.58 -7.17 0.28 0 84.41 55.3 -4.12c1.78,1.11 3.84,1.99 6.25,2.65 2.03,0.63 3.99,0.95 5.84,0.95 1.68,0 3.46,-0.32 5.31,-0.95 2,-0.59 3.85,-1.47 5.63,-2.65l54.98 4.12zm-125.34 -79.48l0 67.98 6.36 -12.48 0 -67.18 -6.36 11.68zm110.8 -11.36l0 66.86 6.47 12.2 0 -66.97 -6.47 -12.09zm-108.32 82.21l47.61 -3.67c1.29,1.78 3.6,3 6.95,3.67 -0.59,-5.39 -2.72,-9.27 -6.32,-11.68 -3.57,-2.37 -9.27,-3.56 -17.13,-3.56 -3.88,0 -7.76,0.24 -11.67,0.7 -4.51,0.63 -8.92,1.36 -13.22,2.27l-6.22 12.27zm112.83 0l-6.25 -12.06c-3.75,-0.84 -8.43,-1.64 -14.02,-2.48 -4.02,-0.46 -7.94,-0.7 -11.78,-0.7 -15.28,0 -22.93,5.07 -22.93,15.24 3.15,-0.46 5.56,-1.72 7.27,-3.78l47.71 3.78zm-105.66 -15.77c5.38,-0.94 9.85,-1.64 13.38,-2.02 3.92,-0.42 7.24,-0.63 9.97,-0.63 11.18,0 19.19,2.69 24.04,8.11l0 -60.65c0,-6.08 -1.88,-10.62 -5.62,-13.63 -3.81,-3.04 -9.51,-4.58 -17.1,-4.58 -3.63,0 -7.62,0.25 -11.98,0.8 -5.18,0.84 -9.44,1.65 -12.69,2.45l0 70.15zm97.97 -70.25c-5.24,-1.09 -9.65,-1.86 -13.21,-2.35 -4.37,-0.55 -8.04,-0.8 -11.05,-0.8 -7.96,0 -14.05,1.64 -18.21,5 -3.35,2.59 -5.03,7.03 -5.03,13.32l0 60.71c3.01,-3.11 6.22,-5.31 9.61,-6.54 3.15,-1.15 7.83,-1.74 14.05,-1.74 3.88,0 7.83,0.21 11.89,0.63 3.95,0.52 7.93,1.25 11.95,2.13l0 -70.36z"/>
    <path class="fil2 str0" d="M20.84 76.48c-0.04,-23.2 -0.08,-46.4 -0.12,-69.59 12.16,-2.31 24.33,-4.62 32.48,-3.17 8.15,1.46 12.29,6.67 16.43,11.89 3.81,-5.14 7.62,-10.27 15.81,-11.8 8.18,-1.54 20.75,0.52 33.31,2.58 -0.03,23.41 -0.07,46.82 -0.1,70.23 -11.67,-1.65 -23.33,-3.3 -31.49,-2.23 -8.16,1.07 -12.83,4.86 -17.49,8.65 -5.23,-3.82 -10.47,-7.65 -18.61,-8.75 -8.14,-1.09 -19.18,0.55 -30.22,2.19z"/>
   </g>
  </g>
 </g>
</svg>
