<?xml version="1.0" encoding="UTF-8"?>
<!DOCTYPE svg PUBLIC "-//W3C//DTD SVG 1.0//EN" "http://www.w3.org/TR/2001/REC-SVG-20010904/DTD/svg10.dtd">
<!-- Creator: CorelDRAW 2021.5 -->
<svg xmlns="http://www.w3.org/2000/svg" xml:space="preserve" width="278px" height="298px" version="1.0" style="shape-rendering:geometricPrecision; text-rendering:geometricPrecision; image-rendering:optimizeQuality; fill-rule:evenodd; clip-rule:evenodd"
viewBox="0 0 139.67 149.91"
 xmlns:xlink="http://www.w3.org/1999/xlink"
 xmlns:xodm="http://www.corel.com/coreldraw/odm/2003">
 <defs>
  <style type="text/css">
   <![CDATA[
    .str0 {stroke:black;stroke-width:1.19;stroke-miterlimit:22.9256}
    .fil2 {fill:lime}
    .fil0 {fill:black;fill-rule:nonzero}
    .fil1 {fill:blue;fill-rule:nonzero}
   ]]>
  </style>
 </defs>
 <g id="Layer_x0020_1">
  <metadata id="CorelCorpID_0Corel-Layer"/>
  <g id="_2384204915280">
   <path class="fil0" d="M9.49 149.36l0 -36.04 7.14 0 8.53 25.51c0.79,2.38 1.36,4.15 1.72,5.34 0.41,-1.31 1.05,-3.24 1.93,-5.78l8.67 -25.07 6.38 0 0 36.04 -4.58 0 0 -30.15 -10.52 30.15 -4.29 0 -10.4 -30.7 0 30.7 -4.58 0z"/>
   <polygon id="_1" class="fil0" points="60.68,149.36 60.68,117.55 48.8,117.55 48.8,113.32 77.34,113.32 77.34,117.55 65.46,117.55 65.46,149.36 "/>
   <path id="_2" class="fil0" d="M74.37 141.56l4.38 -0.71c0.24,1.76 0.93,3.1 2.05,4.04 1.13,0.93 2.7,1.4 4.72,1.4 2.03,0 3.54,-0.41 4.53,-1.24 0.99,-0.82 1.48,-1.8 1.48,-2.91 0,-1 -0.44,-1.79 -1.32,-2.36 -0.63,-0.39 -2.14,-0.89 -4.53,-1.5 -3.24,-0.82 -5.48,-1.52 -6.74,-2.12 -1.25,-0.6 -2.2,-1.42 -2.84,-2.48 -0.65,-1.05 -0.98,-2.21 -0.98,-3.49 0,-1.16 0.27,-2.24 0.8,-3.23 0.54,-0.99 1.26,-1.81 2.17,-2.46 0.69,-0.51 1.63,-0.94 2.81,-1.29 1.19,-0.35 2.46,-0.53 3.82,-0.53 2.05,0 3.84,0.3 5.38,0.89 1.56,0.59 2.7,1.4 3.44,2.4 0.73,1.02 1.24,2.37 1.51,4.06l-4.33 0.61c-0.19,-1.36 -0.76,-2.43 -1.7,-3.19 -0.94,-0.76 -2.26,-1.14 -3.98,-1.14 -2.02,0 -3.48,0.33 -4.34,1 -0.86,0.68 -1.3,1.46 -1.3,2.36 0,0.57 0.18,1.09 0.54,1.55 0.36,0.47 0.92,0.87 1.69,1.18 0.45,0.17 1.74,0.54 3.9,1.13 3.12,0.83 5.3,1.52 6.55,2.05 1.24,0.53 2.21,1.31 2.92,2.31 0.71,1.02 1.06,2.28 1.06,3.79 0,1.46 -0.43,2.85 -1.29,4.15 -0.87,1.3 -2.11,2.31 -3.73,3.02 -1.62,0.71 -3.46,1.06 -5.51,1.06 -3.39,0 -5.98,-0.7 -7.76,-2.1 -1.78,-1.41 -2.91,-3.49 -3.4,-6.25z"/>
   <polygon id="_3" class="fil0" points="101.8,149.36 101.8,113.32 106.7,113.32 125.61,141.61 125.61,113.32 130.19,113.32 130.19,149.36 125.29,149.36 106.38,121.07 106.38,149.36 "/>
   <g>
    <path class="fil1" d="M139.67 104.44l-57.14 -4.3c-2.45,1.3 -4.51,2.17 -6.12,2.55 -2.06,0.63 -4.02,0.95 -5.84,0.95 -1.85,0 -3.91,-0.32 -6.15,-0.95 -1.92,-0.38 -4.23,-1.25 -6.96,-2.55l-57.46 4.3 0 -90.53 12.09 -0.7 4.69 -9.12c4.3,-1.15 9.16,-2.17 14.54,-3.08 5.14,-0.66 9.4,-1.01 12.83,-1.01 6.81,0 12.23,0.87 16.25,2.66 3.91,1.85 7.03,4.89 9.33,9.12 1.99,-4.09 5.07,-7.1 9.23,-9.02 4.09,-1.85 9.75,-2.76 16.99,-2.76 3.21,0 7.27,0.35 12.2,1.01 5.31,0.91 10.1,1.93 14.33,3.08l4.4 8.39 12.79 0.73 0 91.23zm-3.18 -3.46l0 -84.9 -8.07 -0.53 3.18 5.32 0 74.76 -52.15 -3.28c-2.66,2.2 -5.87,3.28 -9.61,3.28 -3.88,0 -7.06,-1.08 -9.51,-3.28l-52.36 3.28 0 -74.76 2.38 -4.58 -7.17 0.28 0 84.41 55.3 -4.12c1.78,1.11 3.84,1.99 6.25,2.65 2.03,0.63 3.99,0.95 5.84,0.95 1.68,0 3.46,-0.32 5.31,-0.95 2,-0.59 3.85,-1.47 5.63,-2.65l54.98 4.12zm-125.34 -79.48l0 67.98 6.36 -12.48 0 -67.18 -6.36 11.68zm110.8 -11.36l0 66.86 6.47 12.2 0 -66.97 -6.47 -12.09zm-108.32 82.21l47.61 -3.67c1.29,1.78 3.6,3 6.95,3.67 -0.59,-5.39 -2.72,-9.27 -6.32,-11.68 -3.57,-2.37 -9.27,-3.56 -17.13,-3.56 -3.88,0 -7.76,0.24 -11.67,0.7 -4.51,0.63 -8.92,1.36 -13.22,2.27l-6.22 12.27zm112.83 0l-6.25 -12.06c-3.75,-0.84 -8.43,-1.64 -14.02,-2.48 -4.02,-0.46 -7.94,-0.7 -11.78,-0.7 -15.28,0 -22.93,5.07 -22.93,15.24 3.15,-0.46 5.56,-1.72 7.27,-3.78l47.71 3.78zm-105.66 -15.77c5.38,-0.94 9.85,-1.64 13.38,-2.02 3.92,-0.42 7.24,-0.63 9.97,-0.63 11.18,0 19.19,2.69 24.04,8.11l0 -60.65c0,-6.08 -1.88,-10.62 -5.62,-13.63 -3.81,-3.04 -9.51,-4.58 -17.1,-4.58 -3.63,0 -7.62,0.25 -11.98,0.8 -5.18,0.84 -9.44,1.65 -12.69,2.45l0 70.15zm97.97 -70.25c-5.24,-1.09 -9.65,-1.86 -13.21,-2.35 -4.37,-0.55 -8.04,-0.8 -11.05,-0.8 -7.96,0 -14.05,1.64 -18.21,5 -3.35,2.59 -5.03,7.03 -5.03,13.32l0 60.71c3.01,-3.11 6.22,-5.31 9.61,-6.54 3.15,-1.15 7.83,-1.74 14.05,-1.74 3.88,0 7.83,0.21 11.89,0.63 3.95,0.52 7.93,1.25 11.95,2.13l0 -70.36z"/>
    <path class="fil2 str0" d="M20.84 76.48c-0.04,-23.2 -0.08,-46.4 -0.12,-69.59 12.16,-2.31 24.33,-4.62 32.48,-3.17 8.15,1.46 12.29,6.67 16.43,11.89 3.81,-5.14 7.62,-10.27 15.81,-11.8 8.18,-1.54 20.75,0.52 33.31,2.58 -0.03,23.41 -0.07,46.82 -0.1,70.23 -11.67,-1.65 -23.33,-3.3 -31.49,-2.23 -8.16,1.07 -12.83,4.86 -17.49,8.65 -5.23,-3.82 -10.47,-7.65 -18.61,-8.75 -8.14,-1.09 -19.18,0.55 -30.22,2.19z"/>
   </g>
  </g>
 </g>
</svg>
