<?xml version="1.0" encoding="UTF-8"?>
<!DOCTYPE svg PUBLIC "-//W3C//DTD SVG 1.0//EN" "http://www.w3.org/TR/2001/REC-SVG-20010904/DTD/svg10.dtd">
<!-- Creator: CorelDRAW 2021.5 -->
<svg xmlns="http://www.w3.org/2000/svg" xml:space="preserve" width="278px" height="298px" version="1.0" style="shape-rendering:geometricPrecision; text-rendering:geometricPrecision; image-rendering:optimizeQuality; fill-rule:evenodd; clip-rule:evenodd"
viewBox="0 0 22.78 24.46"
 xmlns:xlink="http://www.w3.org/1999/xlink"
 xmlns:xodm="http://www.corel.com/coreldraw/odm/2003">
 <defs>
  <style type="text/css">
   <![CDATA[
    .fil1 {fill:black;fill-rule:nonzero}
    .fil0 {fill:red;fill-rule:nonzero}
   ]]>
  </style>
 </defs>
 <g id="Layer_x0020_1">
  <metadata id="CorelCorpID_0Corel-Layer"/>
  <g id="_2384199526608">
   <path class="fil0" d="M22.78 17.03l-9.32 -0.7c-0.4,0.21 -0.74,0.35 -1,0.42 -0.34,0.1 -0.66,0.15 -0.95,0.15 -0.3,0 -0.64,-0.05 -1,-0.15 -0.32,-0.07 -0.69,-0.21 -1.14,-0.42l-9.37 0.7 0 -14.76 1.97 -0.12 0.77 -1.48c0.7,-0.19 1.49,-0.36 2.37,-0.5 0.84,-0.11 1.53,-0.17 2.09,-0.17 1.11,0 1.99,0.14 2.65,0.43 0.64,0.31 1.15,0.8 1.52,1.49 0.33,-0.67 0.83,-1.16 1.51,-1.47 0.66,-0.3 1.59,-0.45 2.77,-0.45 0.52,0 1.18,0.06 1.99,0.17 0.86,0.14 1.64,0.31 2.33,0.5l0.72 1.36 2.09 0.12 0 14.88zm-0.52 -0.56l0 -13.85 -1.32 -0.08 0.52 0.86 0 12.2 -8.5 -0.54c-0.44,0.36 -0.96,0.54 -1.57,0.54 -0.63,0 -1.15,-0.18 -1.55,-0.54l-8.54 0.54 0 -12.2 0.39 -0.74 -1.17 0.04 0 13.77 9.02 -0.68c0.29,0.19 0.62,0.33 1.02,0.44 0.33,0.1 0.65,0.15 0.95,0.15 0.27,0 0.56,-0.05 0.86,-0.15 0.33,-0.1 0.63,-0.24 0.92,-0.44l8.97 0.68zm-20.44 -12.96l0 11.08 1.04 -2.03 0 -10.96 -1.04 1.91zm18.07 -1.86l0 10.91 1.05 1.99 0 -10.92 -1.05 -1.98zm-17.67 13.41l7.77 -0.6c0.21,0.29 0.58,0.49 1.13,0.6 -0.1,-0.88 -0.44,-1.51 -1.03,-1.9 -0.58,-0.39 -1.51,-0.59 -2.79,-0.59 -0.64,0 -1.27,0.04 -1.91,0.12 -0.73,0.1 -1.45,0.22 -2.15,0.37l-1.02 2zm18.4 0l-1.02 -1.97c-0.61,-0.13 -1.37,-0.27 -2.28,-0.4 -0.66,-0.08 -1.3,-0.12 -1.92,-0.12 -2.5,0 -3.74,0.83 -3.74,2.49 0.51,-0.07 0.9,-0.28 1.18,-0.62l7.78 0.62zm-17.23 -2.57c0.88,-0.16 1.61,-0.27 2.18,-0.33 0.64,-0.07 1.18,-0.1 1.63,-0.1 1.82,0 3.13,0.43 3.92,1.32l0 -9.89c0,-0.99 -0.31,-1.73 -0.92,-2.22 -0.62,-0.5 -1.55,-0.75 -2.78,-0.75 -0.6,0 -1.25,0.04 -1.96,0.13 -0.84,0.14 -1.54,0.27 -2.07,0.4l0 11.44zm15.98 -11.46c-0.86,-0.17 -1.57,-0.3 -2.16,-0.38 -0.71,-0.09 -1.31,-0.13 -1.8,-0.13 -1.3,0 -2.29,0.27 -2.97,0.81 -0.54,0.43 -0.82,1.15 -0.82,2.18l0 9.9c0.49,-0.51 1.02,-0.87 1.57,-1.07 0.51,-0.19 1.28,-0.28 2.29,-0.28 0.63,0 1.28,0.03 1.94,0.1 0.64,0.08 1.29,0.2 1.95,0.35l0 -11.48z"/>
   <path class="fil1" d="M3.25 22.47l0.73 -0.07c0.03,0.3 0.11,0.54 0.24,0.73 0.13,0.19 0.33,0.34 0.59,0.46 0.27,0.12 0.57,0.18 0.9,0.18 0.3,0 0.56,-0.05 0.79,-0.14 0.23,-0.09 0.4,-0.21 0.51,-0.36 0.11,-0.16 0.16,-0.33 0.16,-0.51 0,-0.18 -0.05,-0.34 -0.16,-0.48 -0.1,-0.13 -0.28,-0.25 -0.53,-0.34 -0.15,-0.06 -0.5,-0.16 -1.04,-0.29 -0.54,-0.13 -0.92,-0.25 -1.14,-0.37 -0.28,-0.14 -0.49,-0.33 -0.62,-0.54 -0.14,-0.22 -0.21,-0.47 -0.21,-0.74 0,-0.29 0.09,-0.57 0.25,-0.83 0.17,-0.26 0.42,-0.45 0.74,-0.59 0.32,-0.13 0.68,-0.2 1.08,-0.2 0.43,0 0.82,0.07 1.15,0.21 0.33,0.14 0.59,0.35 0.77,0.62 0.18,0.27 0.27,0.58 0.29,0.93l-0.75 0.06c-0.04,-0.38 -0.17,-0.66 -0.41,-0.84 -0.23,-0.2 -0.57,-0.29 -1.02,-0.29 -0.47,0 -0.81,0.09 -1.03,0.26 -0.21,0.17 -0.32,0.38 -0.32,0.62 0,0.21 0.07,0.39 0.23,0.52 0.15,0.14 0.54,0.28 1.17,0.42 0.63,0.15 1.06,0.27 1.3,0.38 0.34,0.15 0.59,0.35 0.76,0.6 0.16,0.24 0.24,0.51 0.24,0.83 0,0.31 -0.09,0.6 -0.27,0.88 -0.18,0.28 -0.43,0.49 -0.77,0.65 -0.33,0.15 -0.71,0.23 -1.13,0.23 -0.53,0 -0.98,-0.08 -1.33,-0.24 -0.36,-0.15 -0.64,-0.38 -0.85,-0.7 -0.2,-0.31 -0.31,-0.66 -0.32,-1.05z"/>
   <path id="_1" class="fil1" d="M8.98 24.36l0 -5.88 2.02 0c0.46,0 0.81,0.03 1.05,0.08 0.34,0.08 0.62,0.22 0.86,0.42 0.31,0.27 0.54,0.6 0.7,1.01 0.15,0.41 0.23,0.87 0.23,1.4 0,0.44 -0.05,0.84 -0.16,1.18 -0.1,0.35 -0.24,0.63 -0.4,0.86 -0.16,0.22 -0.34,0.4 -0.54,0.53 -0.19,0.13 -0.42,0.23 -0.7,0.3 -0.27,0.06 -0.59,0.1 -0.94,0.1l-2.12 0zm0.78 -0.69l1.25 0c0.39,0 0.69,-0.04 0.91,-0.11 0.22,-0.07 0.4,-0.17 0.53,-0.31 0.18,-0.18 0.33,-0.43 0.43,-0.74 0.1,-0.31 0.15,-0.69 0.15,-1.14 0,-0.61 -0.1,-1.08 -0.3,-1.42 -0.2,-0.33 -0.44,-0.55 -0.73,-0.66 -0.21,-0.08 -0.55,-0.12 -1.01,-0.12l-1.23 0 0 4.5z"/>
   <polygon id="_2" class="fil1" points="14.9,24.36 14.9,18.48 15.7,18.48 18.78,23.09 18.78,18.48 19.53,18.48 19.53,24.36 18.73,24.36 15.64,19.74 15.64,24.36 "/>
  </g>
 </g>
</svg>
