<?xml version="1.0" encoding="UTF-8"?>
<!DOCTYPE svg PUBLIC "-//W3C//DTD SVG 1.0//EN" "http://www.w3.org/TR/2001/REC-SVG-20010904/DTD/svg10.dtd">
<!-- Creator: CorelDRAW 2021.5 -->
<svg xmlns="http://www.w3.org/2000/svg" xml:space="preserve" width="278px" height="298px" version="1.0" style="shape-rendering:geometricPrecision; text-rendering:geometricPrecision; image-rendering:optimizeQuality; fill-rule:evenodd; clip-rule:evenodd"
viewBox="0 0 39.17 42.05"
 xmlns:xlink="http://www.w3.org/1999/xlink"
 xmlns:xodm="http://www.corel.com/coreldraw/odm/2003">
 <defs>
  <style type="text/css">
   <![CDATA[
    .fil1 {fill:black;fill-rule:nonzero}
    .fil0 {fill:#666666;fill-rule:nonzero}
   ]]>
  </style>
 </defs>
 <g id="Layer_x0020_1">
  <metadata id="CorelCorpID_0Corel-Layer"/>
  <g id="_2384406739648">
   <path class="fil0" d="M39.17 29.29l-16.03 -1.21c-0.68,0.36 -1.26,0.61 -1.71,0.72 -0.58,0.17 -1.13,0.26 -1.64,0.26 -0.52,0 -1.1,-0.09 -1.73,-0.26 -0.53,-0.11 -1.18,-0.36 -1.95,-0.72l-16.11 1.21 0 -25.39 3.39 -0.2 1.31 -2.55c1.21,-0.33 2.57,-0.61 4.08,-0.87 1.44,-0.18 2.64,-0.28 3.6,-0.28 1.91,0 3.43,0.25 4.56,0.74 1.09,0.52 1.97,1.38 2.61,2.56 0.56,-1.14 1.43,-1.99 2.59,-2.53 1.15,-0.52 2.74,-0.77 4.77,-0.77 0.9,0 2.03,0.1 3.42,0.28 1.49,0.26 2.83,0.54 4.01,0.87l1.24 2.35 3.59 0.2 0 25.59zm-0.89 -0.97l0 -23.81 -2.27 -0.15 0.89 1.49 0 20.97 -14.62 -0.92c-0.75,0.61 -1.65,0.92 -2.7,0.92 -1.08,0 -1.98,-0.31 -2.66,-0.92l-14.69 0.92 0 -20.97 0.67 -1.28 -2.01 0.08 0 23.67 15.51 -1.16c0.5,0.31 1.08,0.56 1.75,0.74 0.57,0.18 1.12,0.27 1.64,0.27 0.47,0 0.97,-0.09 1.49,-0.27 0.56,-0.16 1.08,-0.41 1.58,-0.74l15.42 1.16zm-35.15 -22.29l0 19.06 1.78 -3.5 0 -18.84 -1.78 3.28zm31.07 -3.19l0 18.75 1.81 3.42 0 -18.78 -1.81 -3.39zm-30.38 23.06l13.35 -1.03c0.37,0.5 1.01,0.84 1.95,1.03 -0.16,-1.51 -0.76,-2.6 -1.77,-3.28 -1,-0.66 -2.6,-1 -4.8,-1 -1.09,0 -2.18,0.07 -3.28,0.2 -1.26,0.17 -2.5,0.38 -3.7,0.64l-1.75 3.44zm31.64 0l-1.75 -3.39c-1.05,-0.23 -2.36,-0.46 -3.93,-0.69 -1.13,-0.13 -2.23,-0.2 -3.31,-0.2 -4.28,0 -6.43,1.42 -6.43,4.28 0.89,-0.13 1.56,-0.48 2.04,-1.06l13.38 1.06zm-29.63 -4.42c1.51,-0.27 2.77,-0.47 3.76,-0.57 1.09,-0.12 2.02,-0.18 2.79,-0.18 3.14,0 5.38,0.76 6.74,2.27l0 -17c0,-1.71 -0.53,-2.98 -1.58,-3.82 -1.06,-0.86 -2.66,-1.29 -4.79,-1.29 -1.02,0 -2.13,0.07 -3.36,0.23 -1.45,0.23 -2.65,0.46 -3.56,0.68l0 19.68zm27.48 -19.71c-1.47,-0.3 -2.71,-0.52 -3.71,-0.65 -1.22,-0.16 -2.25,-0.23 -3.1,-0.23 -2.23,0 -3.94,0.46 -5.1,1.4 -0.94,0.73 -1.41,1.97 -1.41,3.74l0 17.02c0.84,-0.87 1.74,-1.49 2.69,-1.83 0.88,-0.32 2.2,-0.49 3.94,-0.49 1.09,0 2.2,0.06 3.33,0.18 1.11,0.14 2.23,0.35 3.36,0.59l0 -19.73z"/>
   <path class="fil1" d="M4.6 38.64l1.26 -0.12c0.06,0.51 0.2,0.93 0.41,1.26 0.22,0.32 0.56,0.58 1.02,0.79 0.46,0.2 0.98,0.3 1.55,0.3 0.51,0 0.96,-0.08 1.35,-0.23 0.39,-0.15 0.68,-0.36 0.87,-0.63 0.19,-0.27 0.29,-0.55 0.29,-0.87 0,-0.31 -0.09,-0.59 -0.28,-0.82 -0.18,-0.24 -0.48,-0.44 -0.91,-0.6 -0.27,-0.1 -0.87,-0.27 -1.8,-0.49 -0.93,-0.22 -1.57,-0.43 -1.95,-0.63 -0.48,-0.25 -0.84,-0.57 -1.07,-0.94 -0.24,-0.38 -0.36,-0.8 -0.36,-1.26 0,-0.52 0.15,-0.99 0.44,-1.43 0.29,-0.45 0.71,-0.79 1.27,-1.02 0.55,-0.23 1.17,-0.34 1.85,-0.34 0.75,0 1.41,0.12 1.98,0.36 0.57,0.24 1.01,0.6 1.32,1.07 0.31,0.46 0.47,1 0.5,1.59l-1.29 0.1c-0.07,-0.64 -0.3,-1.12 -0.7,-1.45 -0.39,-0.32 -0.98,-0.49 -1.76,-0.49 -0.81,0 -1.4,0.15 -1.77,0.45 -0.37,0.29 -0.55,0.65 -0.55,1.07 0,0.36 0.13,0.66 0.39,0.9 0.26,0.23 0.93,0.47 2.02,0.72 1.08,0.24 1.83,0.46 2.23,0.64 0.59,0.27 1.02,0.61 1.3,1.03 0.28,0.41 0.42,0.89 0.42,1.43 0,0.54 -0.15,1.04 -0.46,1.52 -0.31,0.47 -0.75,0.84 -1.32,1.11 -0.58,0.26 -1.23,0.39 -1.95,0.39 -0.91,0 -1.67,-0.13 -2.29,-0.4 -0.62,-0.26 -1.1,-0.66 -1.45,-1.2 -0.36,-0.53 -0.54,-1.14 -0.56,-1.81z"/>
   <path id="_1" class="fil1" d="M14.43 41.88l0 -10.1 2 0 2.39 7.15c0.22,0.67 0.38,1.17 0.48,1.5 0.12,-0.37 0.3,-0.91 0.54,-1.62l2.44 -7.03 1.79 0 0 10.1 -1.29 0 0 -8.45 -2.95 8.45 -1.2 0 -2.92 -8.61 0 8.61 -1.28 0z"/>
   <path id="_2" class="fil1" d="M25.1 41.88l3.88 -10.1 1.47 0 4.11 10.1 -1.52 0 -1.17 -3.06 -4.25 0 -1.1 3.06 -1.42 0zm2.91 -4.15l3.44 0 -1.05 -2.8c-0.32,-0.85 -0.56,-1.55 -0.72,-2.11 -0.14,0.66 -0.33,1.31 -0.56,1.95l-1.11 2.96z"/>
  </g>
 </g>
</svg>
