<?xml version="1.0" encoding="UTF-8"?>
<!DOCTYPE svg PUBLIC "-//W3C//DTD SVG 1.0//EN" "http://www.w3.org/TR/2001/REC-SVG-20010904/DTD/svg10.dtd">
<!-- Creator: CorelDRAW 2021.5 -->
<svg xmlns="http://www.w3.org/2000/svg" xml:space="preserve" width="278px" height="298px" version="1.0" style="shape-rendering:geometricPrecision; text-rendering:geometricPrecision; image-rendering:optimizeQuality; fill-rule:evenodd; clip-rule:evenodd"
viewBox="0 0 61.18 65.69"
 xmlns:xlink="http://www.w3.org/1999/xlink"
 xmlns:xodm="http://www.corel.com/coreldraw/odm/2003">
 <defs>
  <style type="text/css">
   <![CDATA[
    .fil1 {fill:black;fill-rule:nonzero}
    .fil0 {fill:yellow;fill-rule:nonzero}
   ]]>
  </style>
 </defs>
 <g id="Layer_x0020_1">
  <metadata id="CorelCorpID_0Corel-Layer"/>
  <g id="_1985150057824">
   <path class="fil0" d="M61.18 45.75l-25.03 -1.89c-1.08,0.57 -1.98,0.95 -2.68,1.12 -0.91,0.28 -1.76,0.41 -2.56,0.41 -0.81,0 -1.71,-0.13 -2.69,-0.41 -0.85,-0.17 -1.86,-0.55 -3.05,-1.12l-25.17 1.89 0 -39.66 5.3 -0.3 2.05 -4c1.88,-0.5 4.01,-0.95 6.37,-1.35 2.25,-0.29 4.12,-0.44 5.62,-0.44 2.98,0 5.35,0.38 7.12,1.16 1.71,0.82 3.07,2.15 4.08,4 0.88,-1.79 2.22,-3.11 4.05,-3.95 1.79,-0.81 4.27,-1.21 7.44,-1.21 1.4,0 3.18,0.15 5.34,0.44 2.33,0.4 4.42,0.85 6.28,1.35l1.93 3.68 5.6 0.32 0 39.96zm-1.39 -1.52l0 -37.19 -3.54 -0.23 1.39 2.33 0 32.75 -22.84 -1.44c-1.16,0.96 -2.57,1.44 -4.21,1.44 -1.7,0 -3.09,-0.48 -4.17,-1.44l-22.93 1.44 0 -32.75 1.04 -2.01 -3.14 0.13 0 36.97 24.22 -1.81c0.78,0.49 1.69,0.88 2.74,1.17 0.89,0.27 1.75,0.41 2.56,0.41 0.74,0 1.52,-0.14 2.33,-0.41 0.87,-0.26 1.68,-0.65 2.46,-1.17l24.09 1.81zm-54.91 -34.81l0 29.77 2.79 -5.46 0 -29.43 -2.79 5.12zm48.54 -4.98l0 29.29 2.83 5.34 0 -29.33 -2.83 -5.3zm-47.45 36.01l20.85 -1.61c0.57,0.78 1.58,1.32 3.05,1.61 -0.26,-2.36 -1.19,-4.06 -2.77,-5.11 -1.56,-1.05 -4.06,-1.57 -7.5,-1.57 -1.7,0 -3.4,0.11 -5.12,0.31 -1.97,0.28 -3.9,0.6 -5.78,1l-2.73 5.37zm49.42 0l-2.74 -5.28c-1.64,-0.37 -3.69,-0.72 -6.14,-1.09 -1.76,-0.2 -3.47,-0.31 -5.16,-0.31 -6.69,0 -10.04,2.22 -10.04,6.68 1.38,-0.2 2.43,-0.75 3.18,-1.65l20.9 1.65zm-46.28 -6.91c2.36,-0.41 4.32,-0.72 5.86,-0.88 1.72,-0.19 3.17,-0.28 4.37,-0.28 4.9,0 8.4,1.18 10.53,3.55l0 -26.56c0,-2.66 -0.83,-4.65 -2.47,-5.97 -1.66,-1.33 -4.16,-2.01 -7.48,-2.01 -1.59,0 -3.34,0.11 -5.25,0.36 -2.27,0.36 -4.14,0.71 -5.56,1.07l0 30.72zm42.91 -30.77c-2.29,-0.47 -4.22,-0.81 -5.78,-1.02 -1.92,-0.25 -3.53,-0.36 -4.84,-0.36 -3.49,0 -6.16,0.72 -7.98,2.19 -1.47,1.14 -2.2,3.08 -2.2,5.84l0 26.59c1.31,-1.36 2.72,-2.33 4.21,-2.86 1.37,-0.51 3.43,-0.77 6.15,-0.77 1.7,0 3.43,0.09 5.21,0.28 1.73,0.23 3.47,0.55 5.23,0.93l0 -30.82z"/>
   <path class="fil1" d="M0.15 60.35l1.97 -0.18c0.09,0.8 0.3,1.45 0.65,1.96 0.34,0.51 0.87,0.92 1.58,1.23 0.72,0.32 1.53,0.47 2.43,0.47 0.79,0 1.49,-0.11 2.1,-0.35 0.61,-0.24 1.07,-0.57 1.36,-0.98 0.3,-0.42 0.45,-0.87 0.45,-1.36 0,-0.49 -0.14,-0.92 -0.43,-1.29 -0.28,-0.37 -0.76,-0.68 -1.42,-0.93 -0.42,-0.16 -1.36,-0.42 -2.81,-0.77 -1.45,-0.35 -2.47,-0.67 -3.05,-0.98 -0.75,-0.4 -1.31,-0.89 -1.68,-1.48 -0.37,-0.58 -0.55,-1.24 -0.55,-1.96 0,-0.8 0.23,-1.55 0.68,-2.24 0.45,-0.69 1.11,-1.22 1.98,-1.58 0.87,-0.36 1.83,-0.54 2.9,-0.54 1.16,0 2.2,0.19 3.09,0.57 0.89,0.37 1.58,0.93 2.06,1.66 0.48,0.73 0.74,1.56 0.78,2.49l-2.01 0.15c-0.11,-0.99 -0.47,-1.75 -1.09,-2.25 -0.62,-0.51 -1.54,-0.77 -2.75,-0.77 -1.27,0 -2.19,0.23 -2.77,0.7 -0.57,0.46 -0.86,1.02 -0.86,1.67 0,0.57 0.2,1.04 0.61,1.4 0.4,0.37 1.45,0.75 3.15,1.13 1.7,0.38 2.86,0.72 3.49,1 0.92,0.43 1.6,0.96 2.03,1.61 0.44,0.65 0.66,1.39 0.66,2.24 0,0.84 -0.24,1.63 -0.72,2.37 -0.48,0.74 -1.17,1.32 -2.07,1.73 -0.9,0.41 -1.91,0.62 -3.04,0.62 -1.42,0 -2.62,-0.21 -3.58,-0.63 -0.97,-0.41 -1.72,-1.04 -2.27,-1.88 -0.55,-0.83 -0.84,-1.78 -0.87,-2.83z"/>
   <path id="_1" class="fil1" d="M15.5 65.42l0 -15.78 3.13 0 3.73 11.17c0.35,1.04 0.6,1.82 0.76,2.34 0.18,-0.58 0.46,-1.42 0.84,-2.54l3.8 -10.97 2.8 0 0 15.78 -2.01 0 0 -13.2 -4.61 13.2 -1.88 0 -4.56 -13.45 0 13.45 -2 0z"/>
   <polygon id="_2" class="fil1" points="33.82,65.42 33.82,49.64 35.91,49.64 35.91,57.46 43.75,49.64 46.58,49.64 39.96,56.04 46.87,65.42 44.11,65.42 38.5,57.45 35.91,59.95 35.91,65.42 "/>
   <polygon id="_3" class="fil1" points="48.59,65.42 48.59,49.64 50.74,49.64 59.02,62.03 59.02,49.64 61.02,49.64 61.02,65.42 58.88,65.42 50.6,53.03 50.6,65.42 "/>
  </g>
 </g>
</svg>
