<?xml version="1.0" encoding="UTF-8"?>
<!DOCTYPE svg PUBLIC "-//W3C//DTD SVG 1.0//EN" "http://www.w3.org/TR/2001/REC-SVG-20010904/DTD/svg10.dtd">
<!-- Creator: CorelDRAW 2021.5 -->
<svg xmlns="http://www.w3.org/2000/svg" xml:space="preserve" width="278px" height="298px" version="1.0" style="shape-rendering:geometricPrecision; text-rendering:geometricPrecision; image-rendering:optimizeQuality; fill-rule:evenodd; clip-rule:evenodd"
viewBox="0 0 28.8 30.93"
 xmlns:xlink="http://www.w3.org/1999/xlink"
 xmlns:xodm="http://www.corel.com/coreldraw/odm/2003">
 <defs>
  <style type="text/css">
   <![CDATA[
    .fil1 {fill:black;fill-rule:nonzero}
    .fil0 {fill:blue;fill-rule:nonzero}
   ]]>
  </style>
 </defs>
 <g id="Layer_x0020_1">
  <metadata id="CorelCorpID_0Corel-Layer"/>
  <g id="_2420106870240">
   <path class="fil0" d="M28.8 21.54l-11.78 -0.89c-0.51,0.27 -0.93,0.45 -1.26,0.53 -0.43,0.13 -0.83,0.19 -1.21,0.19 -0.38,0 -0.8,-0.06 -1.27,-0.19 -0.39,-0.08 -0.87,-0.26 -1.43,-0.53l-11.85 0.89 0 -18.67 2.49 -0.15 0.97 -1.88c0.89,-0.23 1.89,-0.44 3,-0.63 1.06,-0.14 1.94,-0.21 2.64,-0.21 1.41,0 2.53,0.18 3.36,0.55 0.8,0.38 1.44,1.01 1.92,1.88 0.41,-0.84 1.05,-1.46 1.9,-1.86 0.85,-0.38 2.01,-0.57 3.51,-0.57 0.66,0 1.5,0.07 2.51,0.21 1.1,0.19 2.09,0.4 2.96,0.63l0.91 1.73 2.63 0.15 0 18.82zm-0.65 -0.72l0 -17.5 -1.67 -0.11 0.66 1.09 0 15.42 -10.76 -0.68c-0.54,0.46 -1.21,0.68 -1.98,0.68 -0.8,0 -1.45,-0.22 -1.96,-0.68l-10.8 0.68 0 -15.42 0.49 -0.94 -1.47 0.06 0 17.4 11.4 -0.85c0.37,0.23 0.79,0.41 1.29,0.55 0.42,0.13 0.82,0.2 1.2,0.2 0.35,0 0.72,-0.07 1.1,-0.2 0.41,-0.12 0.79,-0.3 1.16,-0.55l11.34 0.85zm-25.85 -16.39l0 14.02 1.31 -2.57 0 -13.85 -1.31 2.4zm22.85 -2.34l0 13.79 1.33 2.52 0 -13.82 -1.33 -2.49zm-22.34 16.95l9.82 -0.75c0.27,0.36 0.74,0.62 1.43,0.75 -0.12,-1.11 -0.56,-1.91 -1.3,-2.4 -0.74,-0.49 -1.91,-0.74 -3.53,-0.74 -0.8,0 -1.6,0.05 -2.41,0.15 -0.93,0.13 -1.84,0.28 -2.73,0.46l-1.28 2.53zm23.27 0l-1.29 -2.48c-0.77,-0.18 -1.74,-0.34 -2.89,-0.51 -0.83,-0.1 -1.64,-0.15 -2.43,-0.15 -3.15,0 -4.73,1.05 -4.73,3.14 0.65,-0.09 1.15,-0.35 1.5,-0.77l9.84 0.77zm-21.79 -3.25c1.11,-0.19 2.03,-0.34 2.76,-0.42 0.81,-0.08 1.49,-0.12 2.05,-0.12 2.31,0 3.96,0.55 4.96,1.67l0 -12.51c0,-1.25 -0.39,-2.19 -1.16,-2.81 -0.78,-0.63 -1.96,-0.94 -3.52,-0.94 -0.75,0 -1.57,0.05 -2.47,0.16 -1.07,0.17 -1.95,0.34 -2.62,0.51l0 14.46zm20.2 -14.49c-1.08,-0.22 -1.99,-0.38 -2.72,-0.48 -0.9,-0.11 -1.66,-0.16 -2.28,-0.16 -1.64,0 -2.9,0.33 -3.75,1.03 -0.7,0.53 -1.04,1.45 -1.04,2.74l0 12.52c0.62,-0.64 1.28,-1.09 1.98,-1.34 0.65,-0.24 1.61,-0.36 2.9,-0.36 0.8,0 1.61,0.04 2.45,0.12 0.81,0.11 1.63,0.26 2.46,0.44l0 -14.51z"/>
   <path class="fil1" d="M0.07 28.41l0.93 -0.08c0.04,0.37 0.14,0.68 0.3,0.92 0.16,0.24 0.41,0.43 0.75,0.58 0.34,0.15 0.72,0.22 1.14,0.22 0.38,0 0.71,-0.05 0.99,-0.16 0.29,-0.12 0.5,-0.27 0.64,-0.47 0.14,-0.19 0.21,-0.4 0.21,-0.63 0,-0.23 -0.06,-0.44 -0.2,-0.61 -0.13,-0.17 -0.36,-0.32 -0.67,-0.44 -0.2,-0.08 -0.64,-0.2 -1.32,-0.36 -0.68,-0.17 -1.16,-0.32 -1.44,-0.46 -0.35,-0.19 -0.61,-0.42 -0.79,-0.7 -0.17,-0.27 -0.26,-0.58 -0.26,-0.92 0,-0.38 0.11,-0.73 0.32,-1.06 0.22,-0.32 0.53,-0.57 0.94,-0.74 0.4,-0.17 0.86,-0.26 1.36,-0.26 0.55,0 1.03,0.09 1.46,0.27 0.42,0.18 0.74,0.44 0.97,0.78 0.22,0.35 0.34,0.74 0.36,1.18l-0.94 0.07c-0.05,-0.47 -0.23,-0.82 -0.52,-1.06 -0.29,-0.24 -0.72,-0.36 -1.29,-0.36 -0.6,0 -1.03,0.11 -1.3,0.32 -0.28,0.22 -0.41,0.48 -0.41,0.79 0,0.27 0.09,0.49 0.29,0.66 0.19,0.17 0.68,0.35 1.48,0.53 0.8,0.18 1.35,0.34 1.64,0.47 0.43,0.2 0.75,0.45 0.96,0.76 0.21,0.31 0.31,0.66 0.31,1.05 0,0.4 -0.11,0.77 -0.34,1.12 -0.23,0.35 -0.55,0.62 -0.97,0.81 -0.43,0.2 -0.9,0.3 -1.44,0.3 -0.67,0 -1.23,-0.1 -1.68,-0.3 -0.46,-0.19 -0.81,-0.49 -1.07,-0.88 -0.26,-0.4 -0.39,-0.84 -0.41,-1.34z"/>
   <path id="_1" class="fil1" d="M7.3 30.8l0 -7.43 1.47 0 1.76 5.26c0.16,0.49 0.28,0.86 0.35,1.1 0.09,-0.27 0.22,-0.67 0.4,-1.19l1.79 -5.17 1.32 0 0 7.43 -0.95 0 0 -6.22 -2.17 6.22 -0.88 0 -2.15 -6.33 0 6.33 -0.94 0z"/>
   <path id="_2" class="fil1" d="M15.96 30.8l0 -7.43 2.81 0c0.49,0 0.87,0.02 1.13,0.07 0.37,0.06 0.67,0.18 0.92,0.35 0.25,0.17 0.45,0.41 0.6,0.71 0.15,0.31 0.22,0.65 0.22,1.01 0,0.63 -0.2,1.17 -0.6,1.6 -0.4,0.44 -1.13,0.66 -2.18,0.66l-1.91 0 0 3.03 -0.99 0zm0.99 -3.9l1.92 0c0.64,0 1.09,-0.12 1.35,-0.36 0.27,-0.23 0.4,-0.57 0.4,-1 0,-0.31 -0.07,-0.57 -0.23,-0.79 -0.16,-0.23 -0.37,-0.37 -0.62,-0.44 -0.17,-0.05 -0.47,-0.07 -0.92,-0.07l-1.9 0 0 2.66z"/>
   <polygon id="_3" class="fil1" points="22.88,30.8 22.88,23.37 23.89,23.37 27.79,29.2 27.79,23.37 28.73,23.37 28.73,30.8 27.72,30.8 23.82,24.97 23.82,30.8 "/>
  </g>
 </g>
</svg>
